<svg width="263" height="26" viewBox="0 0 263 26" fill="none" xmlns="http://www.w3.org/2000/svg">
<path d="M18.305 0.315001V6.195H6.335V10.71H16.205V16.52H6.335V25.095H0V0.315001H18.305Z" fill="#FFFEF6"/>
<path d="M27.5948 19.25H39.4598V25.095H21.2598V0.315001H27.5948V19.25Z" fill="#FFFEF6"/>
<path d="M47.4731 25.095H40.6831L50.6231 0.315001H57.0631L66.8981 25.095H60.0731L58.8481 21.595H48.7331L47.4731 25.095ZM56.8531 15.89L53.8431 7.385L50.7281 15.89H56.8531Z" fill="#FFFEF6"/>
<path d="M83.889 0.315001H90.749L81.929 25.095H73.879L64.989 0.315001H71.884L78.009 19.775L83.889 0.315001Z" fill="#FFFEF6"/>
<path d="M103.353 0C105.219 0 106.923 0.303333 108.463 0.909999C110.026 1.49333 111.356 2.33333 112.453 3.43C113.573 4.50333 114.436 5.82167 115.043 7.385C115.673 8.925 115.988 10.6517 115.988 12.565C115.988 14.455 115.684 16.1933 115.078 17.78C114.471 19.3433 113.608 20.6967 112.488 21.84C111.368 22.96 110.026 23.835 108.463 24.465C106.923 25.0717 105.208 25.375 103.318 25.375C101.381 25.375 99.6309 25.0717 98.0675 24.465C96.5042 23.8583 95.1625 23.0067 94.0425 21.91C92.9459 20.79 92.0942 19.4483 91.4875 17.885C90.9042 16.3217 90.6125 14.5833 90.6125 12.67C90.6125 10.7567 90.9159 9.01833 91.5225 7.455C92.1525 5.89167 93.0275 4.56167 94.1475 3.465C95.2675 2.36833 96.6092 1.51667 98.1725 0.909999C99.7359 0.303333 101.463 0 103.353 0ZM97.0875 12.635C97.0875 13.475 97.2042 14.3033 97.4375 15.12C97.6942 15.9133 98.0792 16.6367 98.5925 17.29C99.1059 17.92 99.7592 18.4333 100.553 18.83C101.369 19.2033 102.349 19.39 103.493 19.39C104.566 19.39 105.476 19.1917 106.223 18.795C106.993 18.375 107.623 17.85 108.113 17.22C108.603 16.5667 108.953 15.855 109.163 15.085C109.396 14.2917 109.513 13.51 109.513 12.74C109.513 12.0167 109.408 11.2583 109.198 10.465C108.988 9.64833 108.638 8.91333 108.148 8.26C107.658 7.60667 107.016 7.07 106.223 6.65C105.453 6.20667 104.508 5.985 103.388 5.985C102.268 5.985 101.299 6.18333 100.483 6.58C99.6892 6.97667 99.0359 7.49 98.5225 8.12C98.0325 8.75 97.6709 9.46167 97.4375 10.255C97.2042 11.0483 97.0875 11.8417 97.0875 12.635Z" fill="#FFFEF6"/>
<path d="M129.786 0.315001C130.906 0.315001 132.05 0.42 133.216 0.629998C134.406 0.816665 135.48 1.20167 136.436 1.785C137.393 2.36833 138.186 3.19667 138.816 4.27C139.446 5.34333 139.773 6.74333 139.796 8.47C139.75 10.1033 139.353 11.5617 138.606 12.845C137.883 14.1283 136.658 15.0967 134.931 15.75L140.671 25.095H133.461L128.701 16.73H125.656V25.095H119.321V0.315001H129.786ZM129.821 11.165C131.011 11.165 131.921 10.9433 132.551 10.5C133.205 10.0567 133.531 9.415 133.531 8.575C133.531 8.06167 133.438 7.65333 133.251 7.35C133.065 7.04667 132.808 6.81333 132.481 6.65C132.155 6.46333 131.77 6.34667 131.326 6.3C130.883 6.23 130.416 6.195 129.926 6.195H125.656V11.165H129.821Z" fill="#FFFEF6"/>
<path d="M162.475 0.315001V6.195H150.505V10.71H160.375V16.52H150.505V25.095H144.17V0.315001H162.475Z" fill="#FFFEF6"/>
<path d="M176.805 0C178.671 0 180.375 0.303333 181.915 0.909999C183.478 1.49333 184.808 2.33333 185.905 3.43C187.025 4.50333 187.888 5.82167 188.495 7.385C189.125 8.925 189.44 10.6517 189.44 12.565C189.44 14.455 189.136 16.1933 188.53 17.78C187.923 19.3433 187.06 20.6967 185.94 21.84C184.82 22.96 183.478 23.835 181.915 24.465C180.375 25.0717 178.66 25.375 176.77 25.375C174.833 25.375 173.083 25.0717 171.52 24.465C169.956 23.8583 168.615 23.0067 167.495 21.91C166.398 20.79 165.546 19.4483 164.94 17.885C164.356 16.3217 164.065 14.5833 164.065 12.67C164.065 10.7567 164.368 9.01833 164.975 7.455C165.605 5.89167 166.48 4.56167 167.6 3.465C168.72 2.36833 170.061 1.51667 171.625 0.909999C173.188 0.303333 174.915 0 176.805 0ZM170.54 12.635C170.54 13.475 170.656 14.3033 170.89 15.12C171.146 15.9133 171.531 16.6367 172.045 17.29C172.558 17.92 173.211 18.4333 174.005 18.83C174.821 19.2033 175.801 19.39 176.945 19.39C178.018 19.39 178.928 19.1917 179.675 18.795C180.445 18.375 181.075 17.85 181.565 17.22C182.055 16.5667 182.405 15.855 182.615 15.085C182.848 14.2917 182.965 13.51 182.965 12.74C182.965 12.0167 182.86 11.2583 182.65 10.465C182.44 9.64833 182.09 8.91333 181.6 8.26C181.11 7.60667 180.468 7.07 179.675 6.65C178.905 6.20667 177.96 5.985 176.84 5.985C175.72 5.985 174.751 6.18333 173.935 6.58C173.141 6.97667 172.488 7.49 171.975 8.12C171.485 8.75 171.123 9.46167 170.89 10.255C170.656 11.0483 170.54 11.8417 170.54 12.635Z" fill="#FFFEF6"/>
<path d="M203.238 0.315001C204.358 0.315001 205.502 0.42 206.668 0.629998C207.858 0.816665 208.932 1.20167 209.888 1.785C210.845 2.36833 211.638 3.19667 212.268 4.27C212.898 5.34333 213.225 6.74333 213.248 8.47C213.202 10.1033 212.805 11.5617 212.058 12.845C211.335 14.1283 210.11 15.0967 208.383 15.75L214.123 25.095H206.913L202.153 16.73H199.108V25.095H192.773V0.315001H203.238ZM203.273 11.165C204.463 11.165 205.373 10.9433 206.003 10.5C206.657 10.0567 206.983 9.415 206.983 8.575C206.983 8.06167 206.89 7.65333 206.703 7.35C206.517 7.04667 206.26 6.81333 205.933 6.65C205.607 6.46333 205.222 6.34667 204.778 6.3C204.335 6.23 203.868 6.195 203.378 6.195H199.108V11.165H203.273Z" fill="#FFFEF6"/>
<path d="M222.802 12.635C222.802 13.5217 222.907 14.3733 223.117 15.19C223.327 15.9833 223.665 16.695 224.132 17.325C224.622 17.955 225.252 18.4567 226.022 18.83C226.815 19.2033 227.795 19.39 228.962 19.39C229.475 19.39 229.989 19.3433 230.502 19.25C231.015 19.1333 231.482 18.97 231.902 18.76C232.322 18.5267 232.672 18.235 232.952 17.885C233.255 17.535 233.454 17.115 233.547 16.625H227.702V11.305H240.197V12.215C240.197 13.9183 240.034 15.5517 239.707 17.115C239.404 18.655 238.75 20.1017 237.747 21.455C237.257 22.1317 236.674 22.715 235.997 23.205C235.32 23.695 234.585 24.1033 233.792 24.43C233.022 24.7333 232.194 24.9667 231.307 25.13C230.444 25.2933 229.58 25.375 228.717 25.375C226.78 25.375 225.042 25.0833 223.502 24.5C221.985 23.8933 220.679 23.0417 219.582 21.945C218.509 20.8483 217.68 19.5183 217.097 17.955C216.537 16.3917 216.257 14.6417 216.257 12.705C216.257 10.7217 216.549 8.94833 217.132 7.385C217.715 5.79833 218.544 4.46833 219.617 3.395C220.69 2.29833 221.985 1.45833 223.502 0.874999C225.042 0.291666 226.769 0 228.682 0C230.059 0 231.365 0.186667 232.602 0.559999C233.862 0.909999 234.982 1.45833 235.962 2.205C236.965 2.95167 237.794 3.89667 238.447 5.04C239.1 6.16 239.532 7.50167 239.742 9.065H233.477C233.244 7.96833 232.719 7.18667 231.902 6.72C231.109 6.23 230.07 5.985 228.787 5.985C227.667 5.985 226.722 6.18333 225.952 6.58C225.205 6.97667 224.587 7.50167 224.097 8.155C223.63 8.785 223.292 9.49667 223.082 10.29C222.895 11.0833 222.802 11.865 222.802 12.635Z" fill="#FFFEF6"/>
<path d="M262.22 0.315001V6.195H249.865V9.975H260.05V15.575H249.865V19.25H262.22V25.095H243.53V0.315001H262.22Z" fill="#FFFEF6"/>
</svg>
